<?xml version="1.0" encoding="utf-8"?>
<!-- Generator: Adobe Illustrator 23.0.2, SVG Export Plug-In . SVG Version: 6.00 Build 0)  -->
<svg version="1.1" id="Слой_1" xmlns="http://www.w3.org/2000/svg" xmlns:xlink="http://www.w3.org/1999/xlink" x="0px" y="0px"
	 viewBox="0 0 23 23" style="enable-background:new 0 0 23 23;" xml:space="preserve">
<style type="text/css">
	.st0{fill:#47B0D3;}
	.st1{fill:#3298BA;}
	.st2{fill:#E5E5E5;}
	.st3{fill:#CCCCCC;}
	.st4{fill:#FFFFFF;}
</style>
<circle class="st0" cx="11.5" cy="11.5" r="11.5"/>
<path class="st1" d="M1.53,11.5c0-6.09,4.74-11.08,10.73-11.47C12.01,0.01,11.76,0,11.5,0C5.15,0,0,5.15,0,11.5S5.15,23,11.5,23
	c0.26,0,0.51-0.01,0.77-0.03C6.27,22.58,1.53,17.59,1.53,11.5z"/>
<path class="st2" d="M17.08,4.9c-0.11-0.08-0.25-0.09-0.38-0.03L4.35,10.62c-0.22,0.1-0.35,0.32-0.35,0.56
	c0.01,0.23,0.15,0.45,0.36,0.54l11.39,4.96c0.38,0.17,0.83-0.1,0.85-0.51l0.64-10.93C17.26,5.1,17.19,4.97,17.08,4.9z"/>
<polygon class="st3" points="7.71,13.18 8.48,18.33 17.03,4.87 "/>
<path class="st4" d="M16.7,4.87L4.35,10.62C4.13,10.72,4,10.94,4,11.18c0,0.24,0.15,0.45,0.36,0.55l3.35,1.46l9.32-8.31
	C16.93,4.82,16.81,4.82,16.7,4.87z"/>
<polygon class="st2" points="9.5,13.96 8.48,18.33 17.03,4.87 "/>
<path class="st4" d="M17.08,4.9c-0.02-0.01-0.03-0.02-0.05-0.03L9.5,13.96l6.26,2.72c0.38,0.17,0.83-0.1,0.85-0.51l0.64-10.93
	C17.26,5.1,17.19,4.97,17.08,4.9z"/>
</svg>
