<?xml version="1.0" encoding="utf-8"?>
<!-- Generator: Adobe Illustrator 23.0.2, SVG Export Plug-In . SVG Version: 6.00 Build 0)  -->
<svg version="1.1" id="Слой_1" xmlns="http://www.w3.org/2000/svg" xmlns:xlink="http://www.w3.org/1999/xlink" x="0px" y="0px"
	 viewBox="0 0 23 23" style="enable-background:new 0 0 23 23;" xml:space="preserve">
<style type="text/css">
	.st0{fill:#6F3FAA;}
	.st1{fill:#512D84;}
	.st2{fill:#FFFFFF;}
	.st3{fill:#D1D1D1;}
</style>
<circle class="st0" cx="11.5" cy="11.5" r="11.5"/>
<path class="st1" d="M16.49,6.31c-2.8-0.68-5.6-1.47-8.47-0.46c-1.86,0.7-1.86,2.71-1.78,4.41c0,0.46-0.54,1.08-0.31,1.63
	c0.46,1.55,0.85,3.1,2.48,3.87c0.23,0.15,0,0.46,0.15,0.7c-0.08,0-0.23,0.08-0.23,0.15c0,0.37,0.17,0.94,0.06,1.3l4.94,4.94
	c5.08-0.81,9.05-4.94,9.61-10.1L16.49,6.31z"/>
<g>
	<path class="st2" d="M17.58,8.08l0-0.02c-0.31-1.24-1.69-2.58-2.96-2.85l-0.01,0c-2.06-0.39-4.14-0.39-6.2,0l-0.01,0
		C7.11,5.49,5.73,6.83,5.42,8.07l0,0.02c-0.38,1.73-0.38,3.49,0,5.23l0,0.02c0.29,1.19,1.58,2.46,2.8,2.81v1.39
		c0,0.5,0.61,0.75,0.96,0.39l1.4-1.46c0.3,0.02,0.61,0.03,0.91,0.03c1.04,0,2.07-0.1,3.1-0.29l0.01,0c1.27-0.28,2.66-1.61,2.96-2.85
		l0-0.02C17.96,11.58,17.96,9.82,17.58,8.08z M16.47,13.06c-0.21,0.81-1.26,1.82-2.09,2c-1.09,0.21-2.2,0.3-3.3,0.27
		c-0.02,0-0.04,0.01-0.06,0.02C10.87,15.51,10,16.41,10,16.41l-1.09,1.12c-0.08,0.08-0.22,0.03-0.22-0.09v-2.3
		c0-0.04-0.03-0.07-0.06-0.08c0,0,0,0,0,0c-0.84-0.19-1.89-1.19-2.09-2c-0.34-1.57-0.34-3.16,0-4.73c0.21-0.81,1.26-1.82,2.09-2
		c1.91-0.36,3.85-0.36,5.76,0c0.84,0.19,1.89,1.19,2.09,2C16.81,9.9,16.81,11.49,16.47,13.06z"/>
	<path class="st2" d="M13.32,14.12c-0.13-0.04-0.25-0.07-0.36-0.11c-1.18-0.49-2.26-1.12-3.12-2.09c-0.49-0.55-0.87-1.17-1.19-1.83
		C8.48,9.78,8.36,9.46,8.22,9.14C8.1,8.84,8.28,8.54,8.47,8.32c0.17-0.21,0.4-0.37,0.64-0.48C9.3,7.75,9.49,7.8,9.63,7.96
		c0.3,0.35,0.58,0.71,0.8,1.12c0.14,0.25,0.1,0.55-0.15,0.72c-0.06,0.04-0.12,0.09-0.17,0.14c-0.05,0.04-0.1,0.08-0.13,0.14
		c-0.06,0.1-0.06,0.22-0.03,0.33c0.31,0.84,0.82,1.5,1.67,1.85c0.14,0.06,0.27,0.12,0.43,0.1c0.26-0.03,0.35-0.32,0.53-0.47
		c0.18-0.15,0.41-0.15,0.6-0.03c0.19,0.12,0.38,0.25,0.57,0.39c0.18,0.13,0.36,0.26,0.53,0.41c0.16,0.14,0.22,0.33,0.13,0.52
		c-0.17,0.35-0.41,0.65-0.76,0.84C13.55,14.07,13.43,14.09,13.32,14.12C13.19,14.08,13.43,14.09,13.32,14.12z"/>
	<path class="st2" d="M11.5,7.43c1.54,0.04,2.81,1.07,3.08,2.59c0.05,0.26,0.06,0.53,0.08,0.79c0.01,0.11-0.05,0.22-0.17,0.22
		c-0.12,0-0.18-0.1-0.19-0.21c-0.02-0.22-0.03-0.44-0.06-0.66c-0.16-1.15-1.08-2.1-2.22-2.3c-0.17-0.03-0.35-0.04-0.52-0.06
		c-0.11-0.01-0.25-0.02-0.28-0.16c-0.02-0.11,0.08-0.21,0.19-0.21C11.44,7.43,11.47,7.43,11.5,7.43C13.04,7.47,11.47,7.43,11.5,7.43
		z"/>
	<path class="st2" d="M13.85,10.47c0,0.02,0,0.06-0.02,0.11c-0.04,0.15-0.28,0.17-0.33,0.02c-0.02-0.05-0.02-0.1-0.02-0.15
		c0-0.33-0.07-0.65-0.24-0.94c-0.17-0.29-0.43-0.54-0.73-0.69c-0.18-0.09-0.38-0.15-0.58-0.18c-0.09-0.01-0.18-0.02-0.26-0.04
		c-0.11-0.01-0.16-0.08-0.16-0.19c0-0.1,0.08-0.17,0.18-0.16c0.35,0.02,0.7,0.1,1.01,0.26c0.64,0.34,1,0.87,1.11,1.59
		c0,0.03,0.01,0.06,0.02,0.1C13.84,10.28,13.84,10.36,13.85,10.47C13.84,10.49,13.84,10.36,13.85,10.47z"/>
	<path class="st2" d="M12.89,10.43c-0.13,0-0.2-0.07-0.21-0.19c-0.01-0.08-0.02-0.17-0.04-0.25c-0.04-0.16-0.12-0.3-0.26-0.4
		c-0.06-0.05-0.13-0.08-0.21-0.1c-0.09-0.03-0.19-0.02-0.29-0.04c-0.1-0.03-0.16-0.11-0.14-0.2c0.01-0.09,0.1-0.16,0.2-0.15
		c0.6,0.04,1.02,0.35,1.09,1.06c0,0.05,0.01,0.1,0,0.15C13.01,10.39,12.95,10.43,12.89,10.43C12.76,10.43,12.95,10.43,12.89,10.43z"
		/>
</g>
<path class="st3" d="M17.58,8.08l0-0.02c-0.17-0.7-0.68-1.42-1.32-1.97l-0.87,0.77c0.51,0.41,0.96,0.98,1.08,1.47
	c0.34,1.57,0.34,3.16,0,4.73c-0.21,0.81-1.26,1.82-2.09,2c-1.09,0.21-2.2,0.3-3.3,0.27c-0.02,0-0.04,0.01-0.06,0.02
	C10.87,15.51,10,16.41,10,16.41l-1.09,1.12c-0.08,0.08-0.22,0.03-0.22-0.09v-2.3c0-0.04-0.03-0.07-0.06-0.08c0,0,0,0,0,0
	c-0.47-0.11-1.02-0.48-1.44-0.93L6.33,14.9c0.53,0.58,1.22,1.05,1.89,1.24v1.39c0,0.5,0.61,0.75,0.96,0.39l1.4-1.46
	c0.3,0.02,0.61,0.03,0.91,0.03c1.04,0,2.07-0.1,3.1-0.29l0.01,0c1.27-0.28,2.66-1.61,2.96-2.85l0-0.02
	C17.96,11.58,17.96,9.82,17.58,8.08z"/>
<path class="st2" d="M13.32,14.12C13.43,14.09,13.19,14.08,13.32,14.12L13.32,14.12z"/>
<path class="st3" d="M14.28,12.65c-0.17-0.15-0.35-0.28-0.53-0.41c-0.19-0.13-0.37-0.26-0.57-0.39c-0.19-0.12-0.42-0.12-0.6,0.03
	c-0.18,0.15-0.27,0.44-0.53,0.47c-0.16,0.02-0.29-0.05-0.43-0.1c-0.52-0.22-0.92-0.55-1.22-0.97l-0.64,0.56
	c0.02,0.03,0.04,0.05,0.06,0.08c0.86,0.97,1.94,1.6,3.12,2.09c0.11,0.05,0.24,0.07,0.36,0.11c-0.13-0.04,0.11-0.03,0,0
	c0.11-0.03,0.23-0.05,0.33-0.1c0.35-0.19,0.59-0.48,0.76-0.84C14.5,12.98,14.44,12.8,14.28,12.65z"/>
<g>
	<path class="st2" d="M11.51,7.43C11.51,7.43,11.5,7.43,11.51,7.43C11.5,7.43,11.5,7.43,11.51,7.43z"/>
	<path class="st2" d="M11.5,7.43C11.5,7.43,11.51,7.43,11.5,7.43C11.59,7.43,12.98,7.47,11.5,7.43z"/>
</g>
<g>
	<path class="st3" d="M13.71,8.35l-0.27,0.24c0.43,0.41,0.72,0.96,0.8,1.57c0.03,0.22,0.04,0.44,0.06,0.66
		c0.01,0.11,0.06,0.21,0.19,0.21c0.12,0,0.18-0.11,0.17-0.22c-0.02-0.26-0.04-0.53-0.08-0.79C14.46,9.35,14.15,8.78,13.71,8.35z"/>
	<path class="st3" d="M13.81,10.1c-0.08-0.52-0.29-0.94-0.65-1.27l-0.27,0.24c0.14,0.12,0.26,0.27,0.35,0.43
		c0.16,0.28,0.24,0.61,0.24,0.94c0,0.05,0,0.1,0.02,0.15c0.05,0.16,0.29,0.14,0.33-0.02c0.01-0.04,0.01-0.09,0.02-0.11
		c0,0.02-0.01-0.11,0,0c-0.01-0.11-0.01-0.19-0.02-0.27C13.83,10.17,13.82,10.14,13.81,10.1z"/>
</g>
<g>
	<path class="st2" d="M13.85,10.47C13.84,10.36,13.84,10.49,13.85,10.47L13.85,10.47z"/>
	<path class="st2" d="M12.89,10.43C12.89,10.43,12.89,10.43,12.89,10.43c0,0-0.01,0-0.02,0C12.88,10.43,12.88,10.43,12.89,10.43z"/>
	<path class="st2" d="M12.89,10.43c-0.01,0-0.01,0-0.02,0C12.84,10.43,12.81,10.43,12.89,10.43z"/>
	<path class="st2" d="M12.89,10.43C12.89,10.43,12.89,10.43,12.89,10.43C12.9,10.43,12.9,10.43,12.89,10.43z"/>
</g>
<path class="st3" d="M12.61,9.32l-0.28,0.24c0.02,0.01,0.03,0.02,0.04,0.03c0.13,0.1,0.22,0.24,0.26,0.4
	c0.02,0.08,0.03,0.16,0.04,0.25c0.01,0.11,0.08,0.18,0.19,0.19c0.01,0,0.02,0,0.02,0c0.06-0.01,0.11-0.05,0.13-0.12
	c0.01-0.05,0.01-0.1,0-0.15C12.99,9.76,12.84,9.49,12.61,9.32z"/>
</svg>
